<svg xmlns="http://www.w3.org/2000/svg" viewBox="0 0 400 300" width="100%" height="100%">
  <rect width="400" height="300" fill="#f0f7ff"/>
  <g transform="translate(150, 90) scale(4)" fill="none" stroke="#0a6cff" stroke-width="2" stroke-linecap="round" stroke-linejoin="round">
    <path d="M4.8 2.3A.3.3 0 1 0 5 2H4a2 2 0 0 0-2 2v5a6 6 0 0 0 6 6v0a6 6 0 0 0 6-6V4a2 2 0 0 0-2-2h-1a.2.2 0 1 0 .3.3"/>
    <path d="M8 15v1a6 6 0 0 0 6 6v0a6 6 0 0 0 6-6v-4"/>
    <circle cx="20" cy="10" r="2"/>
  </g>
  <text x="50%" y="250" font-family="system-ui, sans-serif" font-size="22" fill="#0a6cff" font-weight="600" text-anchor="middle">Specialist Doctor</text>
</svg>
